<?xml version="1.0" standalone="no"?>
<!DOCTYPE svg PUBLIC "-//W3C//DTD SVG 20010904//EN"
 "http://www.w3.org/TR/2001/REC-SVG-20010904/DTD/svg10.dtd">
<svg version="1.0" xmlns="http://www.w3.org/2000/svg"
 width="500.000000pt" height="500.000000pt" viewBox="0 0 500.000000 500.000000"
 preserveAspectRatio="xMidYMid meet">

<g transform="translate(0.000000,500.000000) scale(0.100000,-0.100000)"
fill="#000000" stroke="none">
<path d="M2320 4494 c-334 -41 -596 -127 -855 -282 -70 -42 -198 -134 -238
-170 l-28 -26 597 -597 598 -598 39 35 c22 18 42 32 45 30 2 -2 19 2 37 10 19
8 59 14 90 14 31 0 71 -6 90 -14 18 -8 36 -12 39 -9 3 3 40 -29 82 -71 42 -42
74 -79 71 -82 -3 -3 1 -21 9 -39 8 -19 14 -59 14 -90 0 -31 -6 -71 -14 -90 -8
-18 -12 -35 -10 -37 2 -3 -12 -23 -30 -45 l-35 -39 598 -598 597 -597 26 28
c14 15 50 62 80 103 179 247 300 539 355 855 24 140 24 490 0 630 -73 418
-254 777 -541 1074 -303 311 -671 507 -1096 582 -111 20 -430 34 -520 23z
m342 -503 c15 -2 80 -65 92 -90 22 -46 10 -118 -27 -159 -31 -34 -75 -52 -124
-52 -38 0 -49 6 -93 48 -47 46 -50 51 -50 100 0 28 5 54 10 57 6 4 8 10 6 14
-6 9 43 58 76 76 19 10 63 13 110 6z"/>
<path d="M958 3773 c-36 -40 -128 -167 -170 -238 -95 -159 -176 -352 -224
-532 -26 -95 -26 -96 -6 -115 19 -19 22 -19 73 -5 81 23 182 30 247 16 31 -6
64 -12 72 -13 35 -4 107 -31 139 -52 19 -13 38 -21 43 -18 13 8 174 -158 190
-196 32 -76 42 -164 29 -239 -7 -39 -17 -73 -22 -77 -5 -3 -9 -13 -9 -24 0
-10 -31 -51 -69 -92 -135 -144 -277 -180 -467 -116 -39 13 -82 31 -97 41 -14
9 -29 17 -33 17 -3 0 -19 11 -36 25 -36 30 -49 31 -72 6 -17 -19 -17 -25 12
-138 93 -368 261 -664 531 -934 270 -270 566 -438 934 -531 113 -29 119 -29
138 -12 25 23 24 36 -6 72 -14 17 -25 33 -25 36 0 4 -8 19 -17 33 -10 15 -28
58 -41 97 -64 190 -28 332 116 467 41 38 82 69 92 69 11 0 21 4 24 9 4 5 38
15 77 22 75 13 163 3 239 -29 38 -16 204 -177 196 -190 -3 -5 5 -24 18 -43 21
-32 48 -104 52 -139 1 -8 7 -41 13 -72 14 -65 7 -166 -16 -247 -14 -51 -14
-54 5 -73 19 -20 20 -20 115 6 180 48 373 129 532 224 68 41 234 161 252 183
10 13 -221 248 -1395 1422 l-1408 1408 -26 -28z"/>
</g>
</svg>
